<svg xmlns="http://www.w3.org/2000/svg" width="8.955" height="7.508" viewBox="0 0 8.955 7.508">
  <g id="Group_62561" data-name="Group 62561" transform="translate(-623.478 -388.492)">
    <path id="icons8_back" d="M9.067,10.122l2.547-2.547a.707.707,0,0,0,0-1h0a.707.707,0,0,0-1,0L7.538,9.651a.666.666,0,0,0,0,.943l3.076,3.076a.707.707,0,0,0,1,0h0a.707.707,0,0,0,0-1Z" transform="translate(620.612 382.124)" fill="#392c23"/>
    <path id="icons8_back-2" data-name="icons8_back" d="M9.067,10.122l2.547-2.547a.707.707,0,0,0,0-1h0a.707.707,0,0,0-1,0L7.538,9.651a.666.666,0,0,0,0,.943l3.076,3.076a.707.707,0,0,0,1,0h0a.707.707,0,0,0,0-1Z" transform="translate(616.135 382.124)" fill="#392c23"/>
  </g>
</svg>
