<svg xmlns="http://www.w3.org/2000/svg" width="322.44" height="279.25" viewBox="0 0 322.44 279.25">
  <path id="Anqaa" d="M623.965,478.117c-2.653-10.469-16.518-17.642-25-10.954-4.083,3.221-5.862,9.476-3.149,13.9s10.131,5.31,13.142,1.064c1.378,10.2-9.965,19.822-19.8,16.792-1.7-.524-3.463-1.517-3.972-3.217-.794-2.589,1.561-4.941,2.9-7.3,3.094-5.461-.266-13.436-6.354-15.028A26.856,26.856,0,0,1,563.2,482.3c-2.423.127-5.036-.151-6.891-1.716-4.142-3.487-1.394-10.83,3.431-13.285s10.556-1.815,15.966-2.045c12.232-.52,24.484-6.295,31.375-16.406s7.546-24.568.338-34.449l-15.06,9.087c1.815.175,2.653,2.641,1.839,4.273s-2.641,2.49-4.4,2.975a19.708,19.708,0,0,1-21.446-8.491c11.712,2.78,24.488-.373,34.155-7.546s16.256-18.114,19-29.83c1.466-6.259,1.835-13.106-.945-18.885s-9.389-10.076-15.62-8.487-9.877,10.326-5.524,15.044a9.464,9.464,0,0,0-16.128,8.948c-11.982-3.082-23.69-7.336-35.887-9.44s-25.243-1.894-36.316,3.63-19.615,17.256-18.666,29.592c.969,12.4,10.679,22.324,14.246,34.243,3.01,10.052,1.47,20.835-.1,31.208a2.744,2.744,0,0,0-1.656,0,2.851,2.851,0,0,0-1.636,1.529,100.8,100.8,0,0,0-26.069-7.3c-.469-6.354,1.9-12.614,3.864-18.722a152.331,152.331,0,0,0,7.2-50.836c-.06-2.093-.488-4.655-2.466-5.35-2.669-.941-5.512,2.534-8.118,1.422-2.276-.977-1.954-4.2-2.248-6.66-.56-4.738-4.909-8.392-9.575-9.373s-9.532.238-13.944,2.057c-2.935,1.211-5.957,2.9-7.26,5.787s.2,7.121,3.36,7.411c-4.631,2.5-7.3,7.594-8.694,12.669a41.181,41.181,0,0,0,1.775,26.82l16.982-11.2a5.572,5.572,0,0,1,3.384-1.279c2.069.175,3.261,2.689,2.832,4.718s-1.946,3.626-3.408,5.1c-8.928,9.019-18.722,18.948-19.79,31.605-.218,2.578-.079,5.282-1.033,7.657a100.626,100.626,0,0,0-16.53,5.5,2.867,2.867,0,0,0-1.636-1.529,2.744,2.744,0,0,0-1.656,0c-1.565-10.374-3.106-21.156-.1-31.208,3.574-11.915,13.273-21.843,14.242-34.243.965-12.336-7.57-24.071-18.666-29.592s-24.123-5.731-36.32-3.63-23.9,6.354-35.887,9.44a9.46,9.46,0,0,0-16.124-8.944c4.369-4.746.723-13.483-5.509-15.072s-12.86,2.7-15.636,8.5-2.415,12.625-.945,18.885c2.748,11.716,9.337,22.658,19,29.83s22.443,10.326,34.155,7.546a19.7,19.7,0,0,1-21.446,8.491c-1.759-.485-3.574-1.346-4.4-2.975s.024-4.1,1.839-4.273l-15.06-9.087c-7.224,9.881-6.569,24.342.338,34.449s19.159,15.886,31.375,16.406c5.409.23,11.12-.4,15.966,2.045s7.57,9.8,3.427,13.285c-1.855,1.565-4.468,1.843-6.887,1.716a26.855,26.855,0,0,1-18.527-8.924c-6.072,1.589-9.436,9.567-6.354,15.028,1.338,2.359,3.709,4.71,2.9,7.3-.528,1.7-2.292,2.693-4,3.217-9.834,3.03-21.18-6.593-19.8-16.792,3.006,4.246,10.429,3.376,13.142-1.064s.933-10.691-3.149-13.9c-8.479-6.688-22.344.484-25,10.953s2.967,21.446,10.6,29.083c19.925,19.965,52.329,22.876,79.121,14.051,2.621-.866,5.735-1.759,7.943-.1a7.983,7.983,0,0,1,2.331,3.8c2.22,6.156,3.547,12.709,6.887,18.337,2.967,5,8.122,9.246,13.781,9.532v.58h6.255c.929,5.651,5.373,10.85,11.12,11.8l.048,8.38a10.572,10.572,0,0,1-4.984-6.45l-4.6,8.261a28.9,28.9,0,0,0-10.183-11.041,11.255,11.255,0,0,1-3.507,11.684,33.568,33.568,0,0,0-11.819-18.595,33.091,33.091,0,0,0-3.574,30.184c1.1,2.84,2.605,5.56,3.177,8.551.687,3.574,0,7.228-.492,10.826-1.14,8.34-.794,17.9,5.3,23.686,5.636,5.354,14.234,5.675,22.006,5.683l31.18.032,31.181-.032c7.772,0,16.371-.33,22.006-5.683,6.1-5.791,6.438-15.35,5.3-23.686-.492-3.6-1.191-7.26-.5-10.826.576-2.994,2.085-5.711,3.177-8.551a33.091,33.091,0,0,0-3.574-30.184,33.6,33.6,0,0,0-11.823,18.595,11.259,11.259,0,0,1-3.5-11.684A28.87,28.87,0,0,0,495.529,575.4l-4.6-8.261a10.572,10.572,0,0,1-5.028,6.434l.048-8.38c5.731-.949,10.179-6.148,11.12-11.8h6.255v-.58c5.659-.282,10.814-4.527,13.777-9.532,3.34-5.628,4.67-12.181,6.891-18.337a7.834,7.834,0,0,1,2.331-3.8c2.2-1.656,5.322-.763,7.943.1,26.792,8.825,59.176,5.914,79.121-14.051C621,499.559,626.618,488.582,623.965,478.117ZM452.772,409.97a3.511,3.511,0,0,1-.977.4c-2.649.794-5.532.068-7.149.457a26.554,26.554,0,0,1,.06-2.78,11.356,11.356,0,0,1,.89-3.022,5.208,5.208,0,0,1,4.091-3.177,4.71,4.71,0,0,1,3.888,1.489,3.853,3.853,0,0,1,.949,1.787A4.742,4.742,0,0,1,452.772,409.97Zm28.063,200.717c-1.374-.461-8.706,5.5-8.706,5.5.326-5.223-5.393-9.532-8.71-11.549-3.32,2.037-9.035,6.327-8.709,11.549,0,0-7.332-5.957-8.706-5.5,0,0-.461-7.335-4.126-7.792,0,0,0-12.836,9.166-13.749,0,0,4.127,9.166,11.915,7.788a3.855,3.855,0,0,0,.461.258,3.577,3.577,0,0,0,.457-.258c7.792,1.378,11.915-7.788,11.915-7.788,9.166.913,9.166,13.749,9.166,13.749C481.307,603.352,480.835,610.687,480.835,610.687Z" transform="translate(-302.192 -357.16)" fill="#f2f2f2"/>
</svg>
