<svg xmlns="http://www.w3.org/2000/svg" width="15.506" height="21.387" viewBox="0 0 15.506 21.387">
  <path id="icons8_marker" d="M10.753,1A7.768,7.768,0,0,0,3,8.753a9.344,9.344,0,0,0,1.169,3.9,36.1,36.1,0,0,0,2.453,4.173c1.769,2.659,3.531,4.821,3.531,4.821l.6.739.6-.739s1.763-2.162,3.537-4.821a36.943,36.943,0,0,0,2.447-4.173,9.344,9.344,0,0,0,1.169-3.9A7.768,7.768,0,0,0,10.753,1Zm0,1.551a6.191,6.191,0,0,1,6.2,6.2,8.653,8.653,0,0,1-1.011,3.222,37.081,37.081,0,0,1-2.344,4c-1.423,2.132-2.392,3.307-2.847,3.876C10.3,19.28,9.33,18.1,7.906,15.973a37.062,37.062,0,0,1-2.344-4A8.652,8.652,0,0,1,4.551,8.753,6.191,6.191,0,0,1,10.753,2.551Zm0,4.652A1.551,1.551,0,1,0,12.3,8.753,1.554,1.554,0,0,0,10.753,7.2Z" transform="translate(-3 -1)" fill="#fff"/>
</svg>
