<svg xmlns="http://www.w3.org/2000/svg" width="189.755" height="283.647" viewBox="0 0 189.755 283.647">
  <path id="Subtraction_6" data-name="Subtraction 6" d="M69.323,0h0A103.572,103.572,0,0,0,90.861,8.823a101.832,101.832,0,0,0,20.412,3.591l.487.038c14.814,1.2,35.375,10.094,61.114,26.431a115.048,115.048,0,0,0-24.707-11.141c-8.261-2.7-16.526-4.648-23.818-6.363-5.941-1.4-11.552-2.717-16.407-4.256a69.348,69.348,0,0,0,7.157,4.86,77.507,77.507,0,0,0,7.114,3.717c4.732,2.183,9.537,3.89,14.183,5.541,14.991,5.328,30.492,10.836,46.943,33.162a147.319,147.319,0,0,0-11.623-9.363,75.593,75.593,0,0,0-9.43-5.823,65.756,65.756,0,0,0-8.516-3.624c-2.828-.99-5.766-1.852-8.878-2.765h0c-2.64-.774-5.369-1.575-8.45-2.567,14.562,10.36,22.21,21.19,29.606,31.662l.014.02c1.087,1.539,2.21,3.13,3.336,4.691a18.185,18.185,0,0,1-4.846-2.539,33.819,33.819,0,0,1-3.832-3.182,8.836,8.836,0,0,1-.15,1.828A14.984,14.984,0,0,1,159,77.231a19.465,19.465,0,0,1-4.66,5.653,31.875,31.875,0,0,1-9.429,5.322A36,36,0,0,1,132.2,90.584a36.382,36.382,0,0,1-15.762-3.7,45.141,45.141,0,0,1-6.828-4.059,51.652,51.652,0,0,1-5.976-5.031c-.049-.011-1.215-.278-3.145-.54a61.208,61.208,0,0,0-8.114-.54,52.535,52.535,0,0,0-16.255,2.433,38.825,38.825,0,0,1,7.192-.59,51.889,51.889,0,0,1,7.132.5,52.482,52.482,0,0,1,8.657,1.964,30.849,30.849,0,0,0,2.618,2.809,26.444,26.444,0,0,0,2.766,2.312,15.439,15.439,0,0,0,3.287,1.851,52.557,52.557,0,0,1-5.364.254c-4.621,0-11.153-.539-16.03-3.107a27.471,27.471,0,0,1-3.8,2.807,23.04,23.04,0,0,1-3.931,1.965,14.049,14.049,0,0,1-4.56.967c-.1,0-.207,0-.309,0a13.373,13.373,0,0,1-4.1-.691c-1.354-.427-2.762-1.028-4.253-1.664a51.234,51.234,0,0,0-14.139-4.194c-.049.023-1.211.564-3.08,1.665a71.373,71.373,0,0,0-7.691,5.281,79.394,79.394,0,0,0-9.977,9.326,78.125,78.125,0,0,0-9.939,13.8,82.779,82.779,0,0,1,8.825-9.084,83.4,83.4,0,0,1,9.517-7.374,60.539,60.539,0,0,1,11.965-6.211c.02,0,2.133.362,4.97,1.086a51.638,51.638,0,0,1,9.572,3.359h-.006a49.2,49.2,0,0,0-8.225,3.365,41.027,41.027,0,0,0-6.96,4.473,25.481,25.481,0,0,0-5.9,6.569,85.567,85.567,0,0,1,9.534-5.784,68.6,68.6,0,0,1,9.353-4.1,36.412,36.412,0,0,1,10.132-2.117,53.4,53.4,0,0,0,8.474-1.009,35.384,35.384,0,0,0,5.7-1.658,16.488,16.488,0,0,0,4.227-2.235h0c.125.048,3.121,1.184,7.328,2.292,2.526.666,5,1.2,7.355,1.577a51.947,51.947,0,0,0,8.209.717c.563,0,1.122-.012,1.66-.037a9.577,9.577,0,0,1-.962,1.508,19.033,19.033,0,0,1-3.43,3.458,26.921,26.921,0,0,1-6.712,3.808,40.815,40.815,0,0,1-10.808,2.558l.006,0a28.628,28.628,0,0,0,4.728.341,41.475,41.475,0,0,0,5.432-.365,44.237,44.237,0,0,0,6.84-1.47,46.978,46.978,0,0,0,15.99-8.493h0c.136.028,1.391.279,3.422.527a73.56,73.56,0,0,0,8.78.528A64.816,64.816,0,0,0,151.8,99.537a46.955,46.955,0,0,0,13.038-4.442c-1.372,2.246-4.684,6.576-11.457,10.33-8.292,4.6-19.111,6.926-32.155,6.926h-.4c-.008.007-.83.8-2.324,2a56.35,56.35,0,0,1-6.373,4.39,49.482,49.482,0,0,1-9.522,4.39,37.335,37.335,0,0,1-11.773,2c-.585,0-1.176-.016-1.756-.047a74.937,74.937,0,0,1-11.038-1.352,43.158,43.158,0,0,1-7.1-2.053,16.6,16.6,0,0,1-4.914-2.7,42.675,42.675,0,0,0-7.828,4.011,49.259,49.259,0,0,0-7.158,5.531,43.711,43.711,0,0,0-6.985,8.342l.428-4.969a17.81,17.81,0,0,1-3.081,1.268,26.159,26.159,0,0,1-3.578.872,27.88,27.88,0,0,1-4.693.4c-.8,0-1.622-.035-2.43-.1a28.019,28.019,0,0,0-4.777,3.289,27.4,27.4,0,0,0-3.949,4.073,21,21,0,0,0-3.191,5.657,32.338,32.338,0,0,1,3.525-3.127,37.813,37.813,0,0,1,3.871-2.644,31.7,31.7,0,0,1,4.955-2.4,33.781,33.781,0,0,0,6.021.526,27.287,27.287,0,0,0,5.752-.57,61.808,61.808,0,0,1-.192,8.057,41.3,41.3,0,0,1-1.15,6.877,17.121,17.121,0,0,1-2.661,5.937,65,65,0,0,0-6.349,3.552,41.9,41.9,0,0,0-5.026,3.693,15.95,15.95,0,0,0-3.673,4.308c.024-.015,2.9-1.852,6.856-3.827a67.853,67.853,0,0,1,6.663-2.919,36.05,36.05,0,0,1,7.124-1.93l0,0c.165-.355,1.657-3.6,3.176-8.032a75.611,75.611,0,0,0,2.228-7.748,41.461,41.461,0,0,0,1.106-8.194,56.7,56.7,0,0,1,5.379-4.434,42.081,42.081,0,0,1,5.277-3.315,19.9,19.9,0,0,1,5.716-2.067,57.952,57.952,0,0,0,7.978,3.609,61.946,61.946,0,0,0,8.415,2.481,47.376,47.376,0,0,0,9.982,1.128,33.06,33.06,0,0,0,12.562-2.329,14.966,14.966,0,0,1-.812,2.8,22.35,22.35,0,0,1-1.384,2.936,24.57,24.57,0,0,1-2.364,3.466,28.518,28.518,0,0,1-8.654,7.031,44.531,44.531,0,0,1-15.528,4.683,37.609,37.609,0,0,0-8.419-1.04,24.7,24.7,0,0,0-5.4.564,17.7,17.7,0,0,0-3.677,1.241,10.05,10.05,0,0,0-2.766,1.806,16.7,16.7,0,0,0,6.981,1.426,26.237,26.237,0,0,0,7.54-1.2,34.714,34.714,0,0,0,5.15-2.021c1.452.133,2.963.2,4.491.2a50.87,50.87,0,0,0,10.28-1.038,44.728,44.728,0,0,0,12.1-4.345c9.7-5.2,16.932-13.948,21.488-25.987h.006c.225.013,1.448.08,3.392.08,2.5,0,5.1-.106,7.718-.314a95.892,95.892,0,0,0,10.517-1.414c9.184-1.772,16.991-4.785,23.2-8.955-3.146,5.211-12.744,17.619-33.881,20.289a13.464,13.464,0,0,1-.553,2.8,20.814,20.814,0,0,1-1.145,3,23.81,23.81,0,0,1-2.127,3.629,29.926,29.926,0,0,1-8.413,7.817,50.906,50.906,0,0,1-15.975,6.355,19.32,19.32,0,0,1-.825,2.514,29,29,0,0,1-3.129,5.828,27.432,27.432,0,0,1-6.412,6.569,28.852,28.852,0,0,1-10.676,4.739,33.185,33.185,0,0,0-4.373,1.29,23.284,23.284,0,0,0-3.486,1.638,16.868,16.868,0,0,0-4.813,4.1c-2.416,3.029-3.47,6.558-4.489,9.97a34.8,34.8,0,0,1-2.582,6.876c-4.2,7.645-14.943,7.865-16.154,7.865h-.1l0,0a15.4,15.4,0,0,0,4.948.722,20.984,20.984,0,0,0,7.11-1.274,27.494,27.494,0,0,0,8.8-5.351,28.46,28.46,0,0,1,.98,4.655c.195,1.438.335,3.026.417,4.72.14,2.9.06,5.106.059,5.128v0a24.321,24.321,0,0,0,.252,5.828,16.309,16.309,0,0,0,1.169,3.9,9.041,9.041,0,0,0,1.894,2.874c2.7-6.654-1.108-14.311-2.339-16.5a71.137,71.137,0,0,0,.2-13.176h0l0,0a13.285,13.285,0,0,1,.17-1.957,18.777,18.777,0,0,1,1.329-4.617,16.816,16.816,0,0,1,3.713-5.393,18.685,18.685,0,0,1,7.324-4.286l1.821-.591.127-.041c11.348-3.682,16.527-5.362,20.533-9.69a17.068,17.068,0,0,1-1.535,3.815,18.949,18.949,0,0,1-2.367,3.445,17.081,17.081,0,0,1-3.832,3.292,67.07,67.07,0,0,1-.082,9.907,37.84,37.84,0,0,1-1.458,8.008,13.111,13.111,0,0,1-3.606,6.156,12.8,12.8,0,0,0-3.634,5.976,27.92,27.92,0,0,0-1.194,8.024,32.772,32.772,0,0,0,.861,7.986,15.578,15.578,0,0,0,2.531,5.863c0-.011-.153-1.463-.143-3.72a46.783,46.783,0,0,1,.844-8.688,29.647,29.647,0,0,1,3.738-9.944,18.779,18.779,0,0,1,8.54-7.49c1.714-4.16,2.457-9.894,3.243-15.963.908-7.01,1.846-14.257,4.357-20.119,2.857-6.67,7.344-10.359,13.718-11.277h0a12.226,12.226,0,0,0-2.924,2.015,10.925,10.925,0,0,0-2.12,2.652,9.443,9.443,0,0,0-1.188,3.864,11.053,11.053,0,0,0,.235,3.215c.218,1.064.544,2.13.889,3.259.984,3.22,2.1,6.869,1.175,12.029a26.434,26.434,0,0,0-1.487,6.462,16.81,16.81,0,0,0,.172,4.548A9.126,9.126,0,0,0,125.642,201a14.307,14.307,0,0,0,2.183-7.806,25.478,25.478,0,0,0-.838-6.607c2.542-4.666,2.889-9.257,3.2-13.308a27.4,27.4,0,0,1,1.168-7.24,9.182,9.182,0,0,1,4.734-5.216,18,18,0,0,0,4.765-3.764,36.092,36.092,0,0,0,3.756-4.831,48.267,48.267,0,0,0,3.346-5.942,25.737,25.737,0,0,0,6.909-1.464,40.779,40.779,0,0,0,7.293-3.318,50.1,50.1,0,0,0,8.659-6.365c0,.014-.5,1.926-1.56,4.828a77.328,77.328,0,0,1-5.052,11.058,52.888,52.888,0,0,1-9.1,12.146,31.428,31.428,0,0,1-13.7,8.094c0,.016-.088,1.872-.517,4.647a60.272,60.272,0,0,1-2.658,10.687,38.988,38.988,0,0,1-6.458,11.85,24.662,24.662,0,0,1-11.918,8.134,15.756,15.756,0,0,0-1.331,1.573,27.511,27.511,0,0,0-2.8,4.625,30.846,30.846,0,0,0-2.481,7.538,34.546,34.546,0,0,0-.373,10.31c.012-.037,1.313-4.219,3.276-8.69a47.577,47.577,0,0,1,3.424-6.568,11.81,11.81,0,0,1,4.017-4.233c1.433-.727,2.789-1.324,4.1-1.9,3.743-1.647,6.7-2.948,8.178-5.88a9.528,9.528,0,0,1,.179,1.734,14.829,14.829,0,0,1-.566,4.366,16.653,16.653,0,0,1-2.966,5.745,24,24,0,0,1-7.021,5.871v0a27.135,27.135,0,0,0-.1,2.763,52.78,52.78,0,0,0,.612,7.529A65.569,65.569,0,0,0,128.7,242.51a73.98,73.98,0,0,0,6.207,13.594,73.017,73.017,0,0,1-2.784-12.52,47.967,47.967,0,0,1-.3-10.782,22.234,22.234,0,0,1,3.105-9.915c1.85-2.875,3.325-5.213,4.509-7.279a39.293,39.293,0,0,0,2.739-5.615,25.385,25.385,0,0,0,1.391-5.411,51.7,51.7,0,0,0,.465-6.67c.021.028,2.494,3.3,4.893,7.118A55.383,55.383,0,0,1,152.253,211a12.127,12.127,0,0,1,1.431,4.982c-.125,3.572-2.095,7.955-3.258,10.25a24.719,24.719,0,0,0-5.046,3.8,15.323,15.323,0,0,0-2.615,3.411,8.248,8.248,0,0,0-1.133,3.405,13.071,13.071,0,0,0,6.415-5.068,23.384,23.384,0,0,0,2.8-5.252,33.891,33.891,0,0,0,4.737-6.872,24.711,24.711,0,0,0,2.936-11.153,92.668,92.668,0,0,1-5.074-10.456,47.474,47.474,0,0,1-2.748-8.85c-.6-3.189-.494-5.717.307-7.514a13.026,13.026,0,0,1,1.862-3.03,13.456,13.456,0,0,1,2.339-2.214,31.5,31.5,0,0,1,5.53-3.094,26.192,26.192,0,0,0,7.491-4.691,23.4,23.4,0,0,1-1.375,3.635,17.886,17.886,0,0,1-1.789,3.022,9.672,9.672,0,0,1-2.585,2.473c.009.011,1.221,1.515,2.941,3.927a111.241,111.241,0,0,1,6.143,9.592,59.07,59.07,0,0,1,5.324,11.977c1.317,4.452,1.48,8.18.484,11.081a10.154,10.154,0,0,0-.541,4.5,11.508,11.508,0,0,0,1.3,4.068,40.417,40.417,0,0,0,5.94,7.728c1.486,1.658,3.023,3.372,4.436,5.223V224.619c-.3-.479-.567-.908-.862-1.379-1.633-2.605-2.453-3.913-2.787-5.273-.329-1.339-.172-2.662.265-5.362a22.518,22.518,0,0,0,.205-4.979,32.44,32.44,0,0,0-.609-4.477,33.261,33.261,0,0,0-1.281-4.634c.041.056,4.231,5.884,5.069,10.314v-7.853A33.186,33.186,0,0,1,183,193.962a36.766,36.766,0,0,1-3.4-7.5,40.687,40.687,0,0,0-2.16-5.308c-.728-1.5-1.574-3.07-2.515-4.656-1.595-2.688-2.942-4.546-2.955-4.564.031.021,3.936,2.625,7.832,5.579,2.288,1.735,4.126,3.25,5.464,4.5,1.673,1.568,2.565,2.729,2.651,3.452.376,3.118.533,8.369.534,8.422,0,0,.005-.016.013-.044s.025-.084.044-.152v-15.05a52,52,0,0,1-7.062-6.224c-3.374-3.629-5.173-6.938-5.346-9.837a20.636,20.636,0,0,1,1.538-7.525,80.17,80.17,0,0,1,3.847-8.8c2.788-5.575,5.713-10.321,5.741-10.368,0,0,.51.858,1.282,2.287v-9.033c-.864-.8-1.782-1.569-2.728-2.29A22.7,22.7,0,0,1,188.5,128.1V34.764a64.862,64.862,0,0,0-8.553-7.969,39.142,39.142,0,0,1,8.553,5.5V17.462l-8.15-5.01-1.739-1.071-10.034-6.45h8.058a87.054,87.054,0,0,0,6.753,7.521c2.712,2.759,5.015,4.909,5.112,5V2.564L76.656,1.728Zm68.286,118.633h0a51.335,51.335,0,0,0,7.186-.5,45,45,0,0,0,8.2-1.942,37.145,37.145,0,0,0,16.29-10.868,22.349,22.349,0,0,1-4.532,6.527,24.637,24.637,0,0,1-6.322,4.526,35.511,35.511,0,0,1-15.943,3.49,45.922,45.922,0,0,1-6.655-.493,47.518,47.518,0,0,1-6.557-1.445A45.091,45.091,0,0,0,137.608,118.633Zm10.073,23.526h0a34.773,34.773,0,0,0,12.641-5.407,37.141,37.141,0,0,0,9.112-8.735,40.08,40.08,0,0,0,3.925-6.561,46.76,46.76,0,0,0,3-8.284l.257,8.858a22.407,22.407,0,0,1-1.448,2.73,36,36,0,0,1-4.825,6.227,36.7,36.7,0,0,1-8.922,6.781,39.923,39.923,0,0,1-13.739,4.392ZM88.617,132.4h0a51.323,51.323,0,0,0,7.186-.5,44.989,44.989,0,0,0,8.2-1.942A37.135,37.135,0,0,0,120.3,119.091a22.346,22.346,0,0,1-4.533,6.526,24.642,24.642,0,0,1-6.323,4.526,35.514,35.514,0,0,1-15.943,3.49,45.893,45.893,0,0,1-6.653-.493A47.468,47.468,0,0,1,80.29,131.7,45.688,45.688,0,0,0,88.617,132.4Zm64.154,39.251h0a37.741,37.741,0,0,0,3.878-2.217,51.966,51.966,0,0,0,7.983-6.3,43.73,43.73,0,0,0,8.163-10.583,37.528,37.528,0,0,0,2.923-6.963,36.943,36.943,0,0,0,1.5-8.113c3.3,15.209-9.8,28.7-24.443,34.172ZM80.609,62.747h0a7.438,7.438,0,0,0,.544,1.406A15.4,15.4,0,0,0,83.5,67.6a23.644,23.644,0,0,0,5.231,4.327,38.875,38.875,0,0,0,9.188,4.047l0,0a34.577,34.577,0,0,0-4.678-6.174A27.049,27.049,0,0,0,87.787,65.3a17.409,17.409,0,0,0-7.178-2.556ZM65.15,64.933a17.693,17.693,0,0,0-2.016.115s0,0,0,0a8.741,8.741,0,0,0,.956,1.419A17.5,17.5,0,0,0,67.562,69.7a26.859,26.859,0,0,0,6.887,3.477,44.173,44.173,0,0,0,11.2,2.168l0,0a38.924,38.924,0,0,0-6.057-5.2,32.6,32.6,0,0,0-6.524-3.578A21.407,21.407,0,0,0,65.15,64.933Zm-4.919,9.11a20.068,20.068,0,0,0-9.1,2.007v0a11.491,11.491,0,0,0,3.042,1.873,20.123,20.123,0,0,0,3.991,1.289,27.554,27.554,0,0,0,5.8.586,43.484,43.484,0,0,0,11.839-1.821l-.006,0A36.64,36.64,0,0,0,71.1,76.011a38.973,38.973,0,0,0-4.971-1.353A30.23,30.23,0,0,0,60.23,74.043Zm-42.22.26A17.639,17.639,0,0,0,16,74.418s0,0,0,0a8.736,8.736,0,0,0,.955,1.419,17.487,17.487,0,0,0,3.471,3.228,26.843,26.843,0,0,0,6.887,3.476,44.169,44.169,0,0,0,11.2,2.167l0,0a38.924,38.924,0,0,0-6.058-5.2A32.607,32.607,0,0,0,25.93,75.93,21.41,21.41,0,0,0,18.011,74.3ZM75.16,82.555h0a20.8,20.8,0,0,0-5.264.633,14.065,14.065,0,0,0-5.083,2.438l0,0a6.987,6.987,0,0,0,1.445.634,13.851,13.851,0,0,0,4.322.636,21.227,21.227,0,0,0,5.194-.693A33.1,33.1,0,0,0,82.6,83.567l-.01,0c-.214-.063-1-.284-2.161-.5A29.134,29.134,0,0,0,75.16,82.555Zm-62.067.859h0A20.059,20.059,0,0,0,4,85.421v0A11.5,11.5,0,0,0,7.04,87.3a20.12,20.12,0,0,0,3.991,1.289,27.556,27.556,0,0,0,5.8.586,43.484,43.484,0,0,0,11.839-1.821l-.007,0a36.629,36.629,0,0,0-4.708-1.963,38.972,38.972,0,0,0-4.971-1.352A30.228,30.228,0,0,0,13.092,83.414Zm21.477,3.468H34.55a2.312,2.312,0,1,0,0,4.579h.013a2.847,2.847,0,0,0,1.865-.667,2.071,2.071,0,0,0,.143-3.11A2.833,2.833,0,0,0,34.569,86.882Zm-5.191,8.037A35.072,35.072,0,0,0,20.71,96.07a25.2,25.2,0,0,0-5.945,2.379,17.1,17.1,0,0,0-5.176,4.416h0a9.643,9.643,0,0,0,2.708.321,16.626,16.626,0,0,0,3.057-.3,22,22,0,0,0,4.029-1.186,35.973,35.973,0,0,0,10.482-6.778h-.025C29.782,94.923,29.623,94.919,29.378,94.919Zm55.866,5.5a12.9,12.9,0,0,0-2.38.218l0,0a6.418,6.418,0,0,0,.759.971,12.615,12.615,0,0,0,2.662,2.147,19.367,19.367,0,0,0,5.133,2.152,31.875,31.875,0,0,0,8.175.991l0,0a28.127,28.127,0,0,0-4.3-3.236,24.405,24.405,0,0,0-4.574-2.228A16.348,16.348,0,0,0,85.244,100.419Zm-23.272,3.658h0a19.25,19.25,0,0,0-2.3,4.394,11.7,11.7,0,0,0-.689,3.282,6.211,6.211,0,0,0,.374,2.764,8.624,8.624,0,0,0,1.984-3.2,13.4,13.4,0,0,0,.724-3.414,17.038,17.038,0,0,0-.092-3.825Zm-27.737.317h0a26.315,26.315,0,0,0-2.507,5.3,20.515,20.515,0,0,0-1.11,5.231,13.233,13.233,0,0,0,.787,5.716A9.618,9.618,0,0,0,33.648,117a17.932,17.932,0,0,0,1.076-5.023,29.538,29.538,0,0,0-.488-7.585Zm13.6.189h0a21.521,21.521,0,0,0-4.734,1.2,17.055,17.055,0,0,0-3.947,2.07,11.018,11.018,0,0,0-3.249,3.551h0a4.187,4.187,0,0,0,.606.037,10.254,10.254,0,0,0,4.3-1.091,21.263,21.263,0,0,0,7.017-5.772Zm-24.891.515h0c-.01,0-.992.189-2.486.623a41.161,41.161,0,0,0-5.852,2.2,30.726,30.726,0,0,0-6.8,4.268,19.856,19.856,0,0,0-5.344,6.831H2.47c.135.01.281.012.381.012A16.507,16.507,0,0,0,10.109,117a29.024,29.024,0,0,0,6.018-4.172,45.656,45.656,0,0,0,6.821-7.731Zm33.111,1.536h0a25.27,25.27,0,0,0-2.49,5.028,19.638,19.638,0,0,0-1.151,4.988,12.666,12.666,0,0,0,.657,5.485,9.217,9.217,0,0,0,2.208-3.441,17.171,17.171,0,0,0,1.115-4.79,28.286,28.286,0,0,0-.339-7.269Zm26.546.576a15.106,15.106,0,0,0-7.821,1.953l0,0a7.887,7.887,0,0,0,1.912,1.049,13.592,13.592,0,0,0,2.455.722,18.072,18.072,0,0,0,3.508.328,29.536,29.536,0,0,0,9.982-1.968l-.008,0a25.623,25.623,0,0,0-3-1.039A26.5,26.5,0,0,0,82.606,107.211Zm-32.622,2.434h0a29.5,29.5,0,0,0-3.524,6.73A17.933,17.933,0,0,0,45.4,121.4a9.489,9.489,0,0,0,.573,4.234,13.208,13.208,0,0,0,3.039-4.9,20.512,20.512,0,0,0,1.109-5.23,25.942,25.942,0,0,0-.141-5.859Zm-5.919,1.33h0a34.586,34.586,0,0,0-6.453,6.155,21.034,21.034,0,0,0-3.066,5.193,13.7,13.7,0,0,0-.925,3.587,6.7,6.7,0,0,0-.031,1.338,15.484,15.484,0,0,0,5.225-4.3,24.064,24.064,0,0,0,3.2-5.4,30.95,30.95,0,0,0,2.048-6.571Zm65.747.1a2.687,2.687,0,0,0-2.485,2.707,3.066,3.066,0,0,0,.6,2.048,2.281,2.281,0,0,0,1.685.929c.04,0,.08,0,.12,0a2.688,2.688,0,0,0,2.485-2.706,3.074,3.074,0,0,0-.6-2.05,2.28,2.28,0,0,0-1.685-.928C109.892,111.072,109.852,111.071,109.813,111.071Zm-12.564.369c-2.822,0-6.752.553-9.448,3.185h0a7.146,7.146,0,0,0,2.918.511,13.456,13.456,0,0,0,4.055-.679,22.728,22.728,0,0,0,5.607-2.781l-.007,0A19.659,19.659,0,0,0,97.248,111.44Zm-68.692.66h0a34.289,34.289,0,0,0-5,5.923,27.112,27.112,0,0,0-3.187,6.313,17.5,17.5,0,0,0-.925,7.578h0a7.726,7.726,0,0,0,1.248-.837,15.387,15.387,0,0,0,2.845-3.049,23.7,23.7,0,0,0,3.074-6.059,39.08,39.08,0,0,0,1.94-9.868Zm75.279.322a2.69,2.69,0,0,0-2.318,1.549,2.865,2.865,0,0,0-.249,1.977,2.129,2.129,0,0,0,1.092,1.424,2,2,0,0,0,.916.217,2.689,2.689,0,0,0,2.318-1.549,2.5,2.5,0,0,0-.844-3.4A2,2,0,0,0,103.835,112.421Zm-83.758,2.47h0c-.035.021-.872.522-2.122,1.44a41.251,41.251,0,0,0-4.744,4.078,30.793,30.793,0,0,0-4.93,6.349A19.889,19.889,0,0,0,5.6,135.012h0a8.727,8.727,0,0,0,1.575-.662,17.48,17.48,0,0,0,3.837-2.781,26.925,26.925,0,0,0,4.748-6.089,44.4,44.4,0,0,0,4.311-10.587Zm2.557,22.6h0c-.041,0-1.014.009-2.557.169a41.13,41.13,0,0,0-6.149,1.118,30.694,30.694,0,0,0-7.454,2.985A19.834,19.834,0,0,0,0,147.532H0a10,10,0,0,0,2.407.244c3.617,0,11.054-1.336,20.223-10.285Zm53.324,2.568a5.583,5.583,0,0,0-.9.059A15.239,15.239,0,0,0,79.584,145a23.587,23.587,0,0,0,5.481,2.828,29.977,29.977,0,0,0,6.563,1.622,29.512,29.512,0,0,0-9.693-7.89,16.675,16.675,0,0,0-3.593-1.233A11.711,11.711,0,0,0,75.957,140.06Zm-45.644,2.654a2.692,2.692,0,0,0-2.32,1.549,2.5,2.5,0,0,0,.843,3.4,2.006,2.006,0,0,0,.916.217,2.693,2.693,0,0,0,2.32-1.548,2.5,2.5,0,0,0-.843-3.4A2.011,2.011,0,0,0,30.313,142.714Zm-4.561,2.157h0a22.1,22.1,0,0,0-3.846,3.179,17.444,17.444,0,0,0-2.743,3.635,11.267,11.267,0,0,0-1.454,4.7,8.076,8.076,0,0,0,3.042-1.992,15.251,15.251,0,0,0,2.643-3.487,25.153,25.153,0,0,0,2.36-6.031Zm-7.686,1.747h0c-.038.014-.947.356-2.344,1.038a41.173,41.173,0,0,0-5.392,3.164,30.753,30.753,0,0,0-5.98,5.366,19.875,19.875,0,0,0-4.106,7.642h0a8.73,8.73,0,0,0,1.667-.37,17.454,17.454,0,0,0,4.27-2.05,26.886,26.886,0,0,0,5.755-5.143,44.357,44.357,0,0,0,6.125-9.647Zm54.971.555a9.859,9.859,0,0,0-4.1.726c3.713,3.594,9.095,4.348,12.956,4.348a26.736,26.736,0,0,0,4.459-.348,31.482,31.482,0,0,0-7.721-3.8A18.692,18.692,0,0,0,73.037,147.173ZM50.485,150.9h0a30.21,30.21,0,0,0,.938,7.716,18.332,18.332,0,0,0,2.028,4.845,9.72,9.72,0,0,0,2.938,3.229,13.54,13.54,0,0,0-.286-5.9,20.965,20.965,0,0,0-2.1-5.048,26.486,26.486,0,0,0-3.518-4.848Zm52.368,3.68h0a36.319,36.319,0,0,0-7.45,5.687,22.093,22.093,0,0,0-3.8,5.073,14.388,14.388,0,0,0-1.378,3.642,6.936,6.936,0,0,0-.186,1.4,16.265,16.265,0,0,0,5.953-3.894,25.275,25.275,0,0,0,3.965-5.272,32.487,32.487,0,0,0,2.894-6.631Zm-72.208.47a28.427,28.427,0,0,0-7.49.934,17.714,17.714,0,0,0-7.328,3.872l0,0a7.718,7.718,0,0,0,1.411.525,15.352,15.352,0,0,0,4.14.527,23.6,23.6,0,0,0,6.7-1.049,38.891,38.891,0,0,0,9.113-4.2l-.006,0A34.052,34.052,0,0,0,30.645,155.05Zm52.9,2.405h0a36.245,36.245,0,0,0-9.169,1.91,22.034,22.034,0,0,0-5.611,2.934,14.354,14.354,0,0,0-2.811,2.69,7.007,7.007,0,0,0-.769,1.178,14.419,14.419,0,0,0,1.444.072,17.381,17.381,0,0,0,6.553-1.373,26.569,26.569,0,0,0,5.381-3.02,31.638,31.638,0,0,0,4.982-4.392Zm8.908.585h0a36.272,36.272,0,0,0-8.825,3.143,22.057,22.057,0,0,0-5.161,3.671,14.368,14.368,0,0,0-2.42,3.048,7.005,7.005,0,0,0-.6,1.272,16.245,16.245,0,0,0,6.855-1.891,25.221,25.221,0,0,0,5.38-3.811,32.485,32.485,0,0,0,4.772-5.432Zm87.106.048h0a21.484,21.484,0,0,0,2.571,2.205,22.072,22.072,0,0,0,2.836,1.788,16.288,16.288,0,0,0,3.531,1.383v-3.372a22.9,22.9,0,0,0-8.938-2.005ZM49.356,160.234h0a34.351,34.351,0,0,0-.9,8.792,20.856,20.856,0,0,0,1.031,5.884,13.553,13.553,0,0,0,1.609,3.295,6.62,6.62,0,0,0,.837,1.027,15.382,15.382,0,0,0,1.165-6.607,23.854,23.854,0,0,0-1.06-6.127,30.712,30.712,0,0,0-2.682-6.264Zm130.28,2.839h0a29.939,29.939,0,0,0,4.974,7.882,20.279,20.279,0,0,0,3.89,3.429v-5.552a31.625,31.625,0,0,0-8.863-5.759Zm-151.94.169h0c-.041,0-1.014.009-2.557.169a41.131,41.131,0,0,0-6.149,1.118,30.7,30.7,0,0,0-7.454,2.984,19.836,19.836,0,0,0-6.474,5.767h0a10.021,10.021,0,0,0,2.408.244c3.617,0,11.055-1.336,20.223-10.285Zm17.518,3.7h0a34.316,34.316,0,0,0-3.855,7.95,20.853,20.853,0,0,0-1.046,5.881,13.561,13.561,0,0,0,.384,3.648,6.559,6.559,0,0,0,.434,1.252,15.361,15.361,0,0,0,3.357-5.806,23.853,23.853,0,0,0,1.1-6.119,30.663,30.663,0,0,0-.375-6.806Zm-5.321.008a2.691,2.691,0,0,0-2.319,1.55,2.5,2.5,0,0,0,.843,3.4,2.009,2.009,0,0,0,.916.217,2.69,2.69,0,0,0,2.319-1.55,2.5,2.5,0,0,0-.844-3.4A2,2,0,0,0,39.893,166.953Zm-4.88.732a1.962,1.962,0,0,0-1.69,1.129,2.076,2.076,0,0,0-.144,1.568,1.541,1.541,0,0,0,.761.911,1.46,1.46,0,0,0,.668.159,1.963,1.963,0,0,0,1.691-1.13,1.82,1.82,0,0,0-.616-2.479A1.472,1.472,0,0,0,35.013,167.685Zm-3.507,3.092h0a30.957,30.957,0,0,0-.605,6.864,24.12,24.12,0,0,0,.909,6.219,15.533,15.533,0,0,0,3.2,5.978l0,0a6.935,6.935,0,0,0,.478-1.247A13.708,13.708,0,0,0,36,184.916a21.081,21.081,0,0,0-.861-5.977,34.7,34.7,0,0,0-3.63-8.161Zm-8.378,1.589h0c-.038.014-.949.357-2.344,1.038a41.182,41.182,0,0,0-5.393,3.165,30.756,30.756,0,0,0-5.98,5.366A19.881,19.881,0,0,0,5.3,189.578h0a8.734,8.734,0,0,0,1.667-.37,17.457,17.457,0,0,0,4.271-2.051A26.892,26.892,0,0,0,17,182.015a44.36,44.36,0,0,0,6.125-9.648Zm43.15.96h0a35.3,35.3,0,0,0-7.31.818,29.172,29.172,0,0,0-3.056.818,34.419,34.419,0,0,0,14.233,3.577,17.984,17.984,0,0,0,5.978-.936,8.69,8.69,0,0,0,1.979-.936A19.921,19.921,0,0,0,66.278,173.326Zm-39.031,2.934h0a20.116,20.116,0,0,0-6.008,6.418,31.251,31.251,0,0,0-3.219,7.49,41.934,41.934,0,0,0-1.3,6.215c-.2,1.547-.238,2.55-.24,2.592a44.913,44.913,0,0,0,7.28-9.01,27.322,27.322,0,0,0,3.078-7.2,17.787,17.787,0,0,0,.59-4.775,8.749,8.749,0,0,0-.184-1.729Zm102.9,2.1h0a29.534,29.534,0,0,0-1.09,7.521,17.931,17.931,0,0,0,.673,5.092,9.51,9.51,0,0,0,1.945,3.8,13.222,13.222,0,0,0,1.24-5.634,20.5,20.5,0,0,0-.689-5.3,26.409,26.409,0,0,0-2.078-5.479Zm-56.952,1.794h0a27.709,27.709,0,0,0-7.053,1.214,16.836,16.836,0,0,0-4.363,2.091,8.917,8.917,0,0,0-2.836,2.858,11.1,11.1,0,0,0,1.5.1,13.642,13.642,0,0,0,4.907-.979,20.662,20.662,0,0,0,4.061-2.153,24.539,24.539,0,0,0,3.787-3.131Zm50.255.263h0a25.865,25.865,0,0,0-5.419,3.9,15.741,15.741,0,0,0-2.808,3.535A8.421,8.421,0,0,0,114,191.405a11.586,11.586,0,0,0,4.319-2.652,18,18,0,0,0,2.93-3.673,22.841,22.841,0,0,0,2.194-4.662Zm-94.519,2.429h0a31.423,31.423,0,0,0-1.577,7.93,19.085,19.085,0,0,0,.431,5.448,12.4,12.4,0,0,0,1.182,3.14,5.944,5.944,0,0,0,.674,1.008,14.071,14.071,0,0,0,1.631-5.917,21.831,21.831,0,0,0-.437-5.672,27.592,27.592,0,0,0-1.9-5.937Zm70.917,3.3h0a27.746,27.746,0,0,0-6.17,3.634,16.867,16.867,0,0,0-3.344,3.5,8.969,8.969,0,0,0-1.644,3.679,12.421,12.421,0,0,0,4.871-2.41,19.3,19.3,0,0,0,3.488-3.637,24.423,24.423,0,0,0,2.8-4.766Zm22.862,1.367h0a34.621,34.621,0,0,0-5.084,7.33,21.052,21.052,0,0,0-1.959,5.7,13.7,13.7,0,0,0-.185,3.7,6.653,6.653,0,0,0,.238,1.317,15.5,15.5,0,0,0,4.253-5.268,24.077,24.077,0,0,0,2.052-5.933,30.946,30.946,0,0,0,.686-6.85Zm-58.8,2.823h-.019a2.839,2.839,0,0,0-1.861.666,2.134,2.134,0,0,0-.777,1.611,2.491,2.491,0,0,0,2.636,2.3H63.9a2.847,2.847,0,0,0,1.864-.666,2.078,2.078,0,0,0,.01-3.235A2.847,2.847,0,0,0,63.9,190.338Zm35.611,1.369h0a31.614,31.614,0,0,0-4.977,6.45,19.223,19.223,0,0,0-2.051,5.112,12.516,12.516,0,0,0-.34,3.366,6.023,6.023,0,0,0,.157,1.213,14.154,14.154,0,0,0,4.123-4.608,21.992,21.992,0,0,0,2.146-5.317,27.814,27.814,0,0,0,.942-6.216Zm-19.276.211h0a24.478,24.478,0,0,0,1.248,5.387,19.326,19.326,0,0,0,2.242,4.517,12.435,12.435,0,0,0,3.928,3.76h0v0a5.6,5.6,0,0,0,.051-1.117,11.172,11.172,0,0,0-.523-2.885,16.9,16.9,0,0,0-2.145-4.344,27.776,27.776,0,0,0-4.8-5.317Zm-32.2.538a15.724,15.724,0,0,0-2.72.234l0,0a7.753,7.753,0,0,0,.912,1.2,15.369,15.369,0,0,0,3.215,2.653,23.6,23.6,0,0,0,6.228,2.693,38.848,38.848,0,0,0,9.952,1.318l0,0a34.111,34.111,0,0,0-5.259-4.044,29.587,29.587,0,0,0-5.6-2.784A19.747,19.747,0,0,0,48.032,192.455Zm30.861,4.866h0a28.3,28.3,0,0,0-.957,6.214,22,22,0,0,0,.461,5.717,14.173,14.173,0,0,0,2.559,5.633l0,0a6.308,6.308,0,0,0,.509-1.108,12.515,12.515,0,0,0,.68-3.314,19.238,19.238,0,0,0-.431-5.493,31.656,31.656,0,0,0-2.823-7.645Zm-39.186.194a18.393,18.393,0,0,0-4.892.645l0,0a8.275,8.275,0,0,0,.967,1.073,16.439,16.439,0,0,0,3.244,2.369,24.46,24.46,0,0,0,6.021,2.369,37.693,37.693,0,0,0,9.3,1.077c1.38,0,2.824-.061,4.292-.181l0,0a38.3,38.3,0,0,0-5.731-3.673,35.313,35.313,0,0,0-6.043-2.528A24.445,24.445,0,0,0,39.707,197.515Zm119.526,2.428a1.781,1.781,0,0,0-1.551.813,1.715,1.715,0,0,0-.147,1.436,2.3,2.3,0,0,0,1,1.247,2.348,2.348,0,0,0,1.225.355,1.78,1.78,0,0,0,1.55-.813,1.713,1.713,0,0,0,.147-1.436,2.3,2.3,0,0,0-1-1.248A2.346,2.346,0,0,0,159.233,199.943Zm2.561,5.063a2.2,2.2,0,0,0-1.918,1,2.107,2.107,0,0,0-.231,1.6,2.829,2.829,0,0,0,1.29,1.719,2.9,2.9,0,0,0,1.515.439,2.2,2.2,0,0,0,1.918-1.005,2.122,2.122,0,0,0,.183-1.777,2.844,2.844,0,0,0-1.239-1.543A2.9,2.9,0,0,0,161.795,205.006Zm-124.9,1.849a21.331,21.331,0,0,0-11.616,3.039l0,0a10.575,10.575,0,0,0,2.49,1.3,18.3,18.3,0,0,0,3.171.895,24.09,24.09,0,0,0,4.5.407A39.966,39.966,0,0,0,50.02,209.35l-.008,0A34.59,34.59,0,0,0,46.1,208.1a40.669,40.669,0,0,0-4.183-.857A34.156,34.156,0,0,0,36.89,206.856Zm54.041,1.953h0a37.477,37.477,0,0,0-7.432,6.184,22.8,22.8,0,0,0-3.7,5.393A14.844,14.844,0,0,0,78.54,224.2a7.223,7.223,0,0,0-.131,1.446,16.779,16.779,0,0,0,5.967-4.271,26.073,26.073,0,0,0,3.859-5.605,32.993,32.993,0,0,0,2.7-6.959Zm-24.585,1.543h0c-.034.013-.851.314-2.116.923A36.267,36.267,0,0,0,59.515,214a27.047,27.047,0,0,0-5.293,4.682,17.484,17.484,0,0,0-3.66,6.7h0a7.723,7.723,0,0,0,1.468-.315,15.354,15.354,0,0,0,3.769-1.776A23.649,23.649,0,0,0,60.9,218.8a39.017,39.017,0,0,0,5.448-8.447ZM175.8,211.2a23.312,23.312,0,0,0-5.937.7,14.394,14.394,0,0,0-3.757,1.547,7.753,7.753,0,0,0-2.536,2.251,9.877,9.877,0,0,0,2.019.205,12.645,12.645,0,0,0,4.1-.735,18.731,18.731,0,0,0,3.439-1.616,20.871,20.871,0,0,0,3.244-2.351C176.157,211.2,175.974,211.2,175.8,211.2Zm-106.335.153a2.689,2.689,0,0,0-2.318,1.549,2.861,2.861,0,0,0-.248,1.976,2.13,2.13,0,0,0,1.092,1.424,2,2,0,0,0,.916.217,2.688,2.688,0,0,0,2.318-1.549,2.5,2.5,0,0,0-.843-3.4A2,2,0,0,0,69.469,211.351Zm-12.1.6h-.026a34.265,34.265,0,0,0-7.969,1.11,26.581,26.581,0,0,0-6.433,2.546,17.361,17.361,0,0,0-5.6,4.9h0a9.11,9.11,0,0,0,2.293.245,18.673,18.673,0,0,0,7.078-1.546,35.49,35.49,0,0,0,10.649-7.257Zm118.3,2.934h0a32.753,32.753,0,0,0-6.813,2.629,25.494,25.494,0,0,0-5.492,3.775,16.477,16.477,0,0,0-4.193,5.849h.012l.1,0a8.9,8.9,0,0,0,1.906-.249,15.591,15.591,0,0,0,3.779-1.436A23.331,23.331,0,0,0,170,221.8a37.432,37.432,0,0,0,5.667-6.913ZM66.531,217.446h0a27.227,27.227,0,0,0-4.093,5.7,16.556,16.556,0,0,0-1.615,4.46,8.8,8.8,0,0,0-.023,3.946,12.187,12.187,0,0,0,3.413-4.087,18.934,18.934,0,0,0,1.69-4.639,24.007,24.007,0,0,0,.628-5.377Zm4.291,2.325h0a30.978,30.978,0,0,0-3.327,7.251,18.829,18.829,0,0,0-.831,5.329,12.246,12.246,0,0,0,.417,3.286,5.868,5.868,0,0,0,.417,1.122,13.875,13.875,0,0,0,2.918-5.306,21.547,21.547,0,0,0,.876-5.545,27.629,27.629,0,0,0-.47-6.136Zm105.457.146h0a28.209,28.209,0,0,0-4.675,4.356,22.347,22.347,0,0,0-3.231,4.855,14.437,14.437,0,0,0-1.5,6.114h0a6.406,6.406,0,0,0,1.1-.562,12.685,12.685,0,0,0,2.629-2.215,19.539,19.539,0,0,0,3.113-4.658,32.219,32.219,0,0,0,2.559-7.889Zm-87.515.717h0a39.021,39.021,0,0,0-5.191,8.607,23.723,23.723,0,0,0-1.794,6.555,15.425,15.425,0,0,0,.057,4.173,7.506,7.506,0,0,0,.362,1.464,17.469,17.469,0,0,0,4.4-6.229,27.135,27.135,0,0,0,1.882-6.819,34.326,34.326,0,0,0,.281-7.751Zm8.879.021h0a39.023,39.023,0,0,0,5.307,8.536,23.654,23.654,0,0,0,5.019,4.571,15.355,15.355,0,0,0,3.738,1.839,7.382,7.382,0,0,0,1.467.339,17.48,17.48,0,0,0-3.547-6.756,27.043,27.043,0,0,0-5.214-4.769,34.757,34.757,0,0,0-6.769-3.76Zm22.08,2.085h0a29.774,29.774,0,0,0,.034,7.66,18.07,18.07,0,0,0,1.429,4.975,9.6,9.6,0,0,0,2.505,3.5,13.335,13.335,0,0,0,.4-5.8,20.672,20.672,0,0,0-1.477-5.182,26.149,26.149,0,0,0-2.887-5.151Zm35.47.75h0a29.526,29.526,0,0,0,.033,7.6,17.927,17.927,0,0,0,1.418,4.936,9.511,9.511,0,0,0,2.486,3.471,13.228,13.228,0,0,0,.394-5.756,20.5,20.5,0,0,0-1.465-5.141,25.931,25.931,0,0,0-2.864-5.11Zm22.5,3.788h0a23.177,23.177,0,0,0-2.487,4.617,18.353,18.353,0,0,0-1.234,4.624,11.84,11.84,0,0,0,.438,5.146h0a8.523,8.523,0,0,0,2.171-3.143,16.052,16.052,0,0,0,1.2-4.439,26.445,26.445,0,0,0-.084-6.8Zm-61.419.81h0a34.635,34.635,0,0,0-1.707,8.749,21.038,21.038,0,0,0,.5,6,13.675,13.675,0,0,0,1.315,3.457,6.666,6.666,0,0,0,.747,1.108,15.507,15.507,0,0,0,1.775-6.529,24.067,24.067,0,0,0-.5-6.251,30.969,30.969,0,0,0-2.121-6.539Zm35.5.707h0a34.352,34.352,0,0,0-1.695,8.681,20.864,20.864,0,0,0,.494,5.958,13.563,13.563,0,0,0,1.305,3.43,6.615,6.615,0,0,0,.741,1.1,15.391,15.391,0,0,0,1.76-6.479,23.884,23.884,0,0,0-.5-6.2,30.206,30.206,0,0,0-2.1-6.487Zm-55.174.01h0a44.378,44.378,0,0,0,5.09,10.233,26.906,26.906,0,0,0,5.19,5.715,17.467,17.467,0,0,0,4.034,2.484,8.452,8.452,0,0,0,1.624.542,19.883,19.883,0,0,0-3.29-8.029,30.771,30.771,0,0,0-5.39-5.96,41.217,41.217,0,0,0-5.035-3.709c-1.319-.824-2.187-1.258-2.223-1.276Zm66.434.252a1.985,1.985,0,0,0-.765.152,2.119,2.119,0,0,0-1.192,1.331,2.849,2.849,0,0,0,.1,1.979,2.648,2.648,0,0,0,2.343,1.72,1.991,1.991,0,0,0,.765-.151,2.486,2.486,0,0,0,1.1-3.31A2.651,2.651,0,0,0,163.035,229.058ZM90.69,232.893h0a39.075,39.075,0,0,0-2.137,9.827,23.739,23.739,0,0,0,.415,6.785,15.429,15.429,0,0,0,1.4,3.932,7.568,7.568,0,0,0,.815,1.268,17.5,17.5,0,0,0,2.16-7.322,27.138,27.138,0,0,0-.418-7.063,34.9,34.9,0,0,0-2.234-7.426Zm94.44,3.846h0a29.482,29.482,0,0,0-3.621,6.678,17.919,17.919,0,0,0-1.127,5.011,9.462,9.462,0,0,0,.514,4.242A13.2,13.2,0,0,0,184,247.815a20.513,20.513,0,0,0,1.184-5.214,26.362,26.362,0,0,0-.057-5.862Zm-49.844.593h0a39.021,39.021,0,0,0,4.764,8.852,23.653,23.653,0,0,0,4.725,4.877,15.358,15.358,0,0,0,3.618,2.069,7.387,7.387,0,0,0,1.443.43,17.492,17.492,0,0,0-3.12-6.965,27.066,27.066,0,0,0-4.907-5.087,36.3,36.3,0,0,0-4.485-3.089c-1.214-.708-2-1.073-2.037-1.088Zm-39.2,1.194h0A44.433,44.433,0,0,0,97.981,249.8a26.954,26.954,0,0,0,3.3,6.984,17.5,17.5,0,0,0,3.136,3.555,8.55,8.55,0,0,0,1.4.993,19.906,19.906,0,0,0-.811-8.642,30.835,30.835,0,0,0-3.422-7.277,41.3,41.3,0,0,0-3.736-5.02c-1.014-1.165-1.725-1.842-1.755-1.871Zm28.681,2.465h0a39.043,39.043,0,0,0-3.927,9.255,23.734,23.734,0,0,0-.854,6.743,15.439,15.439,0,0,0,.644,4.124,7.513,7.513,0,0,0,.565,1.4,17.481,17.481,0,0,0,3.483-6.79,27.143,27.143,0,0,0,.9-7.017,34.918,34.918,0,0,0-.814-7.714Zm35.742.065a1.985,1.985,0,0,0-.765.152,2.117,2.117,0,0,0-1.192,1.33,2.851,2.851,0,0,0,.1,1.979,2.646,2.646,0,0,0,2.343,1.719,1.992,1.992,0,0,0,.765-.151,2.121,2.121,0,0,0,1.193-1.331,2.845,2.845,0,0,0-.1-1.978A2.651,2.651,0,0,0,160.512,241.057Zm3.125.632h0a44.372,44.372,0,0,0,5.09,10.233,26.9,26.9,0,0,0,5.19,5.715,17.467,17.467,0,0,0,4.035,2.484,8.456,8.456,0,0,0,1.624.542,19.881,19.881,0,0,0-3.29-8.029,30.771,30.771,0,0,0-5.39-5.96,41.213,41.213,0,0,0-5.035-3.709c-1.315-.822-2.187-1.258-2.223-1.276Zm24.863,3.957a31.942,31.942,0,0,0-1.949,13.8,15.348,15.348,0,0,0,1.95,6.289V245.645Zm-30.771.13h0a39.08,39.08,0,0,0-2.137,9.826,23.743,23.743,0,0,0,.415,6.785,15.44,15.44,0,0,0,1.4,3.932,7.533,7.533,0,0,0,.815,1.268,17.5,17.5,0,0,0,2.16-7.321,27.155,27.155,0,0,0-.418-7.063,34.894,34.894,0,0,0-2.234-7.427Zm-21.945,2.31h0a44.4,44.4,0,0,0,4.443,10.532,26.923,26.923,0,0,0,4.824,6.029,17.483,17.483,0,0,0,3.872,2.733,8.4,8.4,0,0,0,1.587.643,19.89,19.89,0,0,0-2.783-8.221,30.777,30.777,0,0,0-5.009-6.286,41.228,41.228,0,0,0-4.794-4.017c-1.26-.9-2.1-1.392-2.14-1.413Zm27.343,3.322h0a44.441,44.441,0,0,0,1.892,11.277,26.957,26.957,0,0,0,3.3,6.984,17.5,17.5,0,0,0,3.136,3.555,8.372,8.372,0,0,0,1.4.993,19.906,19.906,0,0,0-.811-8.642,30.84,30.84,0,0,0-3.422-7.277,41.3,41.3,0,0,0-3.737-5.02c-1.029-1.182-1.748-1.864-1.755-1.871Zm-34.158,1.6h0a39.077,39.077,0,0,0-1.434,9.954,23.719,23.719,0,0,0,.9,6.737,15.411,15.411,0,0,0,1.676,3.821,7.441,7.441,0,0,0,.9,1.206,17.5,17.5,0,0,0,1.634-7.457,27.134,27.134,0,0,0-.919-7.014,34.328,34.328,0,0,0-2.756-7.246Zm7.075,5.448h0a44.429,44.429,0,0,0,.567,11.42,26.971,26.971,0,0,0,2.467,7.322,17.523,17.523,0,0,0,2.7,3.9,8.509,8.509,0,0,0,1.271,1.149,19.9,19.9,0,0,0,.2-8.677,30.853,30.853,0,0,0-2.552-7.627,41.324,41.324,0,0,0-3.128-5.422c-.886-1.3-1.519-2.056-1.526-2.063Z" transform="translate(189.001 283.061) rotate(180)" fill="#eee" stroke="rgba(0,0,0,0)" stroke-miterlimit="10" stroke-width="1" opacity="0.63"/>
</svg>
